<svg width="107" height="28" viewBox="0 0 107 28" fill="none" xmlns="http://www.w3.org/2000/svg" id="svg670027173_9625">
<path d="M13.7623 0C11.0404 0 8.37959 0.807146 6.11639 2.31937C3.85319 3.83159 2.08924 5.98097 1.0476 8.49571C0.00596321 11.0104 -0.266577 13.7776 0.264445 16.4472C0.795467 19.1168 2.1062 21.5691 4.0309 23.4937C5.95559 25.4184 8.4078 26.7292 11.0774 27.2602C13.7471 27.7912 16.5142 27.5187 19.0289 26.477C21.5437 25.4354 23.6931 23.6715 25.2053 21.4083C26.7175 19.1451 27.5246 16.4842 27.5246 13.7623C27.5246 10.1123 26.0747 6.61183 23.4938 4.03089C20.9128 1.44995 17.4123 0 13.7623 0ZM13.7623 25.4074C11.4592 25.4074 9.20771 24.7244 7.29269 23.4448C5.37767 22.1652 3.8851 20.3465 3.00371 18.2187C2.12233 16.0908 1.89172 13.7494 2.34104 11.4905C2.79037 9.23157 3.89945 7.15662 5.52804 5.52803C7.15663 3.89945 9.23158 2.79036 11.4905 2.34104C13.7494 1.89171 16.0908 2.12232 18.2187 3.00371C20.3465 3.88509 22.1652 5.37767 23.4448 7.29268C24.7244 9.2077 25.4074 11.4591 25.4074 13.7623C25.4074 16.8508 24.1805 19.8127 21.9966 21.9966C19.8127 24.1805 16.8508 25.4074 13.7623 25.4074Z" fill="black"/>
<path d="M8.24726 13.487C8.34568 13.5862 8.46277 13.665 8.59177 13.7187C8.72078 13.7725 8.85915 13.8001 8.9989 13.8001C9.13865 13.8001 9.27702 13.7725 9.40603 13.7187C9.53503 13.665 9.65212 13.5862 9.75053 13.487L12.2384 10.9992C12.7058 10.525 12.9909 9.90102 13.0433 9.23723C13.0957 8.57345 12.9121 7.91247 12.5249 7.37081C12.1376 6.82916 11.5716 6.4416 10.9265 6.27647C10.2815 6.11134 9.59879 6.17923 8.9989 6.46817C8.39809 6.1614 7.70711 6.08051 7.05168 6.24021C6.39626 6.39992 5.81995 6.7896 5.4276 7.33838C5.03525 7.88715 4.85295 8.55853 4.91385 9.23038C4.97476 9.90223 5.27482 10.5299 5.75946 10.9992L8.24726 13.487ZM7.25214 8.469C7.31639 8.40175 7.39361 8.34822 7.47913 8.31165C7.56465 8.27507 7.65669 8.25622 7.7497 8.25622C7.84271 8.25622 7.93476 8.27507 8.02028 8.31165C8.1058 8.34822 8.18301 8.40175 8.24726 8.469C8.34568 8.56823 8.46277 8.64699 8.59177 8.70073C8.72078 8.75448 8.85915 8.78215 8.9989 8.78215C9.13865 8.78215 9.27702 8.75448 9.40603 8.70073C9.53503 8.64699 9.65212 8.56823 9.75053 8.469C9.81554 8.40307 9.893 8.35071 9.97842 8.31497C10.0639 8.27923 10.1555 8.26083 10.2481 8.26083C10.3407 8.26083 10.4324 8.27923 10.5178 8.31497C10.6032 8.35071 10.6807 8.40307 10.7457 8.469C10.8129 8.53325 10.8665 8.61047 10.9031 8.69599C10.9396 8.78151 10.9585 8.87355 10.9585 8.96657C10.9585 9.05958 10.9396 9.15162 10.9031 9.23714C10.8665 9.32266 10.8129 9.39988 10.7457 9.46413L8.9989 11.2427L7.25214 9.52765C7.18489 9.4634 7.13136 9.38618 7.09478 9.30066C7.05821 9.21514 7.03935 9.12309 7.03935 9.03008C7.03935 8.93707 7.05821 8.84503 7.09478 8.75951C7.13136 8.67399 7.18489 8.59677 7.25214 8.53252V8.469Z" fill="black"/>
<path d="M17.7751 13.487C17.8735 13.5862 17.9906 13.665 18.1196 13.7187C18.2486 13.7725 18.387 13.8001 18.5267 13.8001C18.6665 13.8001 18.8049 13.7725 18.9339 13.7187C19.0629 13.665 19.1799 13.5862 19.2784 13.487L21.7662 10.9992C22.2336 10.525 22.5187 9.90102 22.5711 9.23723C22.6235 8.57345 22.4399 7.91247 22.0527 7.37081C21.6654 6.82916 21.0994 6.4416 20.4543 6.27647C19.8093 6.11134 19.1266 6.17923 18.5267 6.46817C17.9259 6.1614 17.2349 6.08051 16.5795 6.24021C15.9241 6.39992 15.3478 6.7896 14.9554 7.33838C14.5631 7.88715 14.3808 8.55853 14.4417 9.23038C14.5026 9.90223 14.8027 10.5299 15.2873 10.9992L17.7751 13.487ZM16.78 8.469C16.8442 8.40175 16.9214 8.34822 17.007 8.31165C17.0925 8.27507 17.1845 8.25622 17.2775 8.25622C17.3705 8.25622 17.4626 8.27507 17.5481 8.31165C17.6336 8.34822 17.7108 8.40175 17.7751 8.469C17.8735 8.56823 17.9906 8.64699 18.1196 8.70073C18.2486 8.75448 18.387 8.78215 18.5267 8.78215C18.6665 8.78215 18.8049 8.75448 18.9339 8.70073C19.0629 8.64699 19.1799 8.56823 19.2784 8.469C19.3434 8.40307 19.4208 8.35071 19.5062 8.31497C19.5917 8.27923 19.6833 8.26083 19.7759 8.26083C19.8685 8.26083 19.9602 8.27923 20.0456 8.31497C20.131 8.35071 20.2085 8.40307 20.2735 8.469C20.3407 8.53325 20.3943 8.61047 20.4308 8.69599C20.4674 8.78151 20.4863 8.87355 20.4863 8.96657C20.4863 9.05958 20.4674 9.15162 20.4308 9.23714C20.3943 9.32266 20.3407 9.39988 20.2735 9.46413L18.5267 11.2427L16.78 9.52765C16.7127 9.4634 16.6592 9.38618 16.6226 9.30066C16.586 9.21514 16.5672 9.12309 16.5672 9.03008C16.5672 8.93707 16.586 8.84503 16.6226 8.75951C16.6592 8.67399 16.7127 8.59677 16.78 8.53252V8.469Z" fill="black"/>
<path d="M21.1726 14.8208C20.8918 14.8208 20.6226 14.9324 20.424 15.1309C20.2255 15.3294 20.114 15.5987 20.114 15.8795C20.114 18.8013 17.2662 21.1727 13.7621 21.1727C10.258 21.1727 7.41025 18.8013 7.41025 15.8795C7.41025 15.5987 7.29872 15.3294 7.10018 15.1309C6.90165 14.9324 6.63238 14.8208 6.35161 14.8208C6.07084 14.8208 5.80158 14.9324 5.60304 15.1309C5.40451 15.3294 5.29297 15.5987 5.29297 15.8795C5.29297 19.9658 9.09349 23.29 13.7621 23.29C18.4307 23.29 22.2313 19.9658 22.2313 15.8795C22.2313 15.5987 22.1197 15.3294 21.9212 15.1309C21.7227 14.9324 21.4534 14.8208 21.1726 14.8208Z" fill="black"/>
<path d="M42.9309 18.1189H37.1207L35.9304 21.4162H32.9849L38.4724 6.98535H41.7003L47.1474 21.4162H44.1212L42.9309 18.1189ZM38.0487 15.5543H42.0029L40.0258 10.0995L38.0487 15.5543Z" fill="black"/>
<path d="M53.9799 18.811C54.5583 18.811 55.1097 18.7228 55.6343 18.5464C56.1588 18.3564 56.6161 18.0714 57.0061 17.6915C57.3962 17.3116 57.7055 16.8366 57.9342 16.2667C58.1628 15.6833 58.2771 14.998 58.2771 14.211C58.2771 13.424 58.1628 12.7455 57.9342 12.1756C57.7055 11.5921 57.3962 11.1104 57.0061 10.7305C56.6295 10.3506 56.179 10.0656 55.6544 9.87559C55.1299 9.68562 54.5785 9.59064 54.0001 9.59064H51.7607V18.811H53.9799ZM48.9766 21.4162V6.98535H54.101C55.1232 6.98535 56.0646 7.14818 56.9254 7.47384C57.7862 7.7995 58.5259 8.27442 59.1446 8.89861C59.7768 9.50922 60.2677 10.2624 60.6174 11.1579C60.9805 12.0535 61.1621 13.0712 61.1621 14.211C61.1621 15.3508 60.9805 16.3685 60.6174 17.2641C60.2677 18.1596 59.7768 18.9127 59.1446 19.5233C58.5125 20.134 57.766 20.6021 56.9053 20.9278C56.0445 21.2534 55.103 21.4162 54.0808 21.4162H48.9766Z" fill="black"/>
<path d="M68.579 13.5597C69.2784 13.5597 69.8231 13.3765 70.2132 13.0101C70.6167 12.6302 70.8184 12.1281 70.8184 11.5039C70.8184 10.8526 70.6167 10.3438 70.2132 9.97736C69.8231 9.61099 69.2784 9.42781 68.579 9.42781H66.38V13.5597H68.579ZM66.3598 15.9818V21.4162H63.5757V6.98535H68.922C69.6214 6.98535 70.2602 7.10069 70.8386 7.33136C71.4169 7.54847 71.9146 7.86056 72.3315 8.26764C72.7484 8.66115 73.0645 9.13607 73.2797 9.69241C73.5084 10.2352 73.6227 10.8323 73.6227 11.4836C73.6227 12.1349 73.5084 12.7387 73.2797 13.2951C73.0645 13.8514 72.7484 14.3263 72.3315 14.7198C71.9146 15.1133 71.4169 15.4254 70.8386 15.6561C70.2602 15.8732 69.6214 15.9818 68.922 15.9818H66.3598Z" fill="black"/>
<path d="M75.7515 21.4162V6.98535H78.5356V18.7295H84.9108V21.4162H75.7515Z" fill="black"/>
<path d="M86.8389 21.4164V11.4024H89.5221V21.4164H86.8389ZM86.5161 8.12539C86.5161 7.65047 86.6775 7.25019 87.0003 6.92453C87.3231 6.59887 87.7131 6.43604 88.1704 6.43604C88.6411 6.43604 89.0312 6.59887 89.3405 6.92453C89.6633 7.25019 89.8247 7.65047 89.8247 8.12539C89.8247 8.57318 89.6633 8.95991 89.3405 9.28557C89.0312 9.61123 88.6411 9.77406 88.1704 9.77406C87.7131 9.77406 87.3231 9.61123 87.0003 9.28557C86.6775 8.95991 86.5161 8.57318 86.5161 8.12539Z" fill="black"/>
<path d="M93.8473 18.1192C93.8742 18.5127 94.0356 18.8655 94.3315 19.1776C94.6274 19.4897 95.0713 19.6458 95.663 19.6458C96.1069 19.6458 96.4364 19.5508 96.6516 19.3608C96.8668 19.1573 96.9744 18.9198 96.9744 18.6484C96.9744 18.4177 96.8937 18.221 96.7323 18.0582C96.5709 17.8818 96.2952 17.7529 95.9051 17.6714L94.5938 17.3661C93.6254 17.149 92.9193 16.7759 92.4755 16.2467C92.0316 15.7039 91.8097 15.0797 91.8097 14.3741C91.8097 13.9263 91.9038 13.5057 92.0921 13.1122C92.2804 12.7051 92.536 12.3591 92.8588 12.0741C93.195 11.7756 93.5851 11.5382 94.0289 11.3618C94.4862 11.1854 94.9838 11.0972 95.5218 11.0972C96.2212 11.0972 96.813 11.1989 97.2972 11.4025C97.7814 11.5924 98.1714 11.8367 98.4673 12.1352C98.7767 12.4337 99.0053 12.7526 99.1533 13.0918C99.3012 13.4175 99.3886 13.716 99.4155 13.9874L97.1761 14.4962C97.1492 14.347 97.1022 14.1977 97.0349 14.0485C96.9811 13.8856 96.887 13.7364 96.7525 13.6007C96.618 13.465 96.4499 13.3564 96.2481 13.275C96.0598 13.1936 95.8244 13.1529 95.542 13.1529C95.1923 13.1529 94.8897 13.2479 94.6341 13.4378C94.392 13.6278 94.271 13.8653 94.271 14.1502C94.271 14.3945 94.3517 14.5912 94.5131 14.7405C94.6879 14.8898 94.9099 14.9915 95.1789 15.0458L96.5911 15.3511C97.5729 15.5546 98.3059 15.9346 98.7901 16.4909C99.2878 17.0473 99.5366 17.6918 99.5366 18.4245C99.5366 18.8316 99.4559 19.2319 99.2945 19.6254C99.1465 20.0189 98.9111 20.3717 98.5884 20.6838C98.2656 20.9959 97.8621 21.2469 97.3779 21.4369C96.8937 21.6269 96.3288 21.7218 95.6832 21.7218C94.93 21.7218 94.2979 21.6133 93.7868 21.3962C93.2757 21.1791 92.8588 20.9145 92.536 20.6024C92.2132 20.2903 91.9711 19.9579 91.8097 19.6051C91.6617 19.2387 91.5743 18.913 91.5474 18.6281L93.8473 18.1192Z" fill="black"/>
<path d="M105.003 11.4022H107V13.8039H105.003V17.9968C105.003 18.431 105.097 18.7363 105.285 18.9127C105.487 19.0756 105.783 19.157 106.173 19.157C106.334 19.157 106.496 19.1502 106.657 19.1366C106.818 19.123 106.933 19.1027 107 19.0756V21.3145C106.879 21.3687 106.691 21.423 106.435 21.4773C106.193 21.5316 105.877 21.5587 105.487 21.5587C104.518 21.5587 103.752 21.2873 103.187 20.7446C102.622 20.2018 102.34 19.4419 102.34 18.4649V13.8039H100.544V11.4022H101.048C101.573 11.4022 101.956 11.2529 102.198 10.9544C102.454 10.6423 102.582 10.2624 102.582 9.81457V8.41016H105.003V11.4022Z" fill="black"/>
</svg>